<mxfile host="app.diagrams.net" modified="2020-11-28T16:22:41.919Z" agent="5.0 (Windows NT 10.0; WOW64) AppleWebKit/537.36 (KHTML, like Gecko) Chrome/86.0.4240.75 Safari/537.36" etag="9ztZ72r8ey65DJLzbVhR" version="13.10.4" type="github">
  <diagram id="6a731a19-8d31-9384-78a2-239565b7b9f0" name="Page-1">
    <mxGraphModel dx="984" dy="1460" grid="1" gridSize="10" guides="1" tooltips="1" connect="1" arrows="1" fold="1" page="1" pageScale="1" pageWidth="1169" pageHeight="827" background="#ffffff" math="0" shadow="0">
      <root>
        <mxCell id="0" />
        <mxCell id="1" parent="0" />
        <mxCell id="1746" value="" style="edgeStyle=none;rounded=0;jumpStyle=none;html=1;shadow=0;labelBackgroundColor=none;startArrow=none;startFill=0;endArrow=classic;endFill=1;jettySize=auto;orthogonalLoop=1;strokeColor=#2F5B7C;strokeWidth=3;fontFamily=Helvetica;fontSize=16;fontColor=#23445D;spacing=5;exitX=1;exitY=0.5;exitDx=0;exitDy=0;entryX=-0.012;entryY=0.308;entryDx=0;entryDy=0;entryPerimeter=0;" parent="1" source="1767" target="1771" edge="1">
          <mxGeometry relative="1" as="geometry">
            <mxPoint x="542" y="170" as="targetPoint" />
            <Array as="points">
              <mxPoint x="472" y="80" />
              <mxPoint x="472" y="170" />
            </Array>
          </mxGeometry>
        </mxCell>
        <mxCell id="1749" value="&lt;b&gt;Tactics&lt;/b&gt;&lt;br&gt;&lt;br&gt;1.1.&amp;nbsp;&lt;span&gt;The service will be accessed via HTTPS port using existing ESB HTTPS configuration and a trusted&lt;/span&gt;&lt;div&gt;certificate and&amp;nbsp;Entrust Authority Security Toolkit for Java 7.2 (ref SAD 8.3.1.1)&lt;/div&gt;2.1.&amp;nbsp;&lt;span&gt;&amp;nbsp;A guideline that will be followed during the installation and configuration of Microsoft SQL&amp;nbsp;&lt;/span&gt;&lt;span&gt;Server 2012&lt;/span&gt;&lt;span&gt;&lt;br&gt;&lt;/span&gt;3.1.&amp;nbsp;OWASP standard secure coding practices outlined and written agreement.&amp;nbsp;" style="rounded=1;whiteSpace=wrap;html=1;shadow=0;labelBackgroundColor=none;strokeColor=#b85450;strokeWidth=3;fillColor=#f8cecc;fontFamily=Helvetica;fontSize=12;align=left;fontStyle=0;spacing=5;arcSize=7;perimeterSpacing=2;" parent="1" vertex="1">
          <mxGeometry x="70" y="440" width="340" height="170" as="geometry" />
        </mxCell>
        <mxCell id="9QWpWI23YcQeR8jQ0grn-1788" value="" style="edgeStyle=orthogonalEdgeStyle;rounded=0;orthogonalLoop=1;jettySize=auto;html=1;strokeColor=#2414FF;strokeWidth=3;fontFamily=Comic Sans MS;fontSize=12;fontColor=#000000;" edge="1" parent="1" source="1764" target="1749">
          <mxGeometry relative="1" as="geometry" />
        </mxCell>
        <mxCell id="1764" value="&lt;b&gt;&lt;br&gt;Objective&lt;br&gt;&lt;/b&gt;1. To ensure  web services integration system embeds the&lt;br&gt;Entrust Authority Security for secure data encryption by May 2020 (ref: SAD&amp;nbsp;&lt;span style=&quot;font-size: 11.0pt ; line-height: 107% ; font-family: &amp;#34;calibri&amp;#34; , sans-serif&quot;&gt;8.3.1.1)&lt;/span&gt;&lt;br&gt;2. To ensure software build is documented and agree with&amp;nbsp; SecureWorks,&lt;br&gt;TransCon&amp;nbsp;IT Security and NOMS for any deviations from the build standard (to cater for&amp;nbsp;application or support requirements web security is implemented by April 2020 (ref: SAD 8.8)&lt;br&gt;3. To ensure there is a mutual agreement between SecureWorks, TransCon, IT Security and NOMS on the ownership of the source code, data, and documentation that will be signed by both parties by April 2020. (ref: SAD 8.5)&lt;br&gt;&amp;nbsp;&amp;nbsp;" style="rounded=1;whiteSpace=wrap;html=1;shadow=0;labelBackgroundColor=none;strokeColor=#d6b656;strokeWidth=3;fillColor=#fff2cc;fontFamily=Helvetica;fontSize=12;align=left;spacing=5;fontStyle=0;arcSize=7;perimeterSpacing=2;" parent="1" vertex="1">
          <mxGeometry x="20.63" y="190" width="439.37" height="170" as="geometry" />
        </mxCell>
        <mxCell id="9QWpWI23YcQeR8jQ0grn-1782" style="edgeStyle=orthogonalEdgeStyle;rounded=0;orthogonalLoop=1;jettySize=auto;html=1;exitX=0.5;exitY=1;exitDx=0;exitDy=0;entryX=0.5;entryY=0;entryDx=0;entryDy=0;fontFamily=Comic Sans MS;fontSize=12;fontColor=#000000;strokeColor=#2414FF;strokeWidth=3;" edge="1" parent="1" source="1767" target="1764">
          <mxGeometry relative="1" as="geometry" />
        </mxCell>
        <mxCell id="1767" value="&lt;b&gt;Goal:&lt;/b&gt; &lt;br&gt;To ensure there are standard practice guidelines for the security application which is established in order to implement secure NOMS&lt;br style=&quot;font-size: 12px&quot;&gt;&lt;br style=&quot;font-size: 12px&quot;&gt;Ref: SAD 8.5" style="rounded=1;whiteSpace=wrap;html=1;shadow=0;labelBackgroundColor=none;strokeColor=none;strokeWidth=3;fillColor=#f5af58;fontFamily=Helvetica;fontSize=12;align=left;spacing=5;arcSize=7;perimeterSpacing=2;" parent="1" vertex="1">
          <mxGeometry x="50" y="40" width="380" height="80" as="geometry" />
        </mxCell>
        <mxCell id="1771" value="&lt;b&gt;Steps to achieve goal:&amp;nbsp;&lt;br&gt;&lt;br&gt;&lt;/b&gt;1.&lt;span&gt;OWASP Application Security Verification Standard (ASVS): A standard for performing application-level security verifications. (ref Wiki: OWASP)&lt;/span&gt;&lt;div&gt;2. OWASP Testing Guide: The OWASP Testing Guide includes a &quot;best practice&quot; penetration testing framework.&amp;nbsp;&lt;/div&gt;&amp;nbsp;(ref Wiki: OWASP)&lt;div&gt;3. OWASP Top 10 Incident Response Guidance. This project provides a proactive approach to Incident Response planning. The intended audience of this document includes business owners to security engineers, developers, audit, program managers, law enforcement &amp;amp; legal council.&amp;nbsp;&lt;/div&gt;&amp;nbsp;(ref Wiki: OWASP)&lt;div&gt;4.&amp;nbsp;&lt;span&gt;The ESCROW agreement that will outline this as a&lt;/span&gt;&lt;span&gt;&amp;nbsp;multi user license&amp;nbsp;application, NOMS to be customised to meet SecureWorks requirements and support provided by vendor. Outline of service level agreement and license renewal responsibilities (ref:&amp;nbsp;&lt;/span&gt;&lt;span&gt;Paganini, P (2015)&lt;/span&gt;&lt;/div&gt;&lt;div&gt;&lt;span&gt;&amp;nbsp;&lt;/span&gt;&lt;/div&gt;&lt;div&gt;&lt;/div&gt;" style="rounded=1;whiteSpace=wrap;html=1;shadow=0;labelBackgroundColor=none;strokeColor=none;strokeWidth=3;fillColor=#12aab5;fontFamily=Helvetica;fontSize=12;align=left;spacing=5;fontStyle=0;arcSize=7;perimeterSpacing=2;" parent="1" vertex="1">
          <mxGeometry x="520" y="40" width="330" height="460" as="geometry" />
        </mxCell>
        <mxCell id="1774" value="Media" style="rounded=1;whiteSpace=wrap;html=1;shadow=0;labelBackgroundColor=none;strokeColor=none;strokeWidth=3;fillColor=#61c6ce;fontFamily=Helvetica;fontSize=14;align=center;spacing=5;fontStyle=0;arcSize=7;perimeterSpacing=2;" parent="1" vertex="1">
          <mxGeometry x="910" y="413" width="150" height="60" as="geometry" />
        </mxCell>
        <mxCell id="1778" value="PR" style="rounded=1;whiteSpace=wrap;html=1;shadow=0;labelBackgroundColor=none;strokeColor=none;strokeWidth=3;fillColor=#61c6ce;fontFamily=Helvetica;fontSize=14;align=center;spacing=5;fontStyle=0;arcSize=7;perimeterSpacing=2;" parent="1" vertex="1">
          <mxGeometry x="910" y="280" width="150" height="60" as="geometry" />
        </mxCell>
        <mxCell id="1779" value="" style="edgeStyle=none;rounded=1;jumpStyle=none;html=1;shadow=0;labelBackgroundColor=none;startArrow=none;startFill=0;jettySize=auto;orthogonalLoop=1;strokeColor=#12AAB5;strokeWidth=3;fontFamily=Helvetica;fontSize=14;fontColor=#FFFFFF;spacing=5;fontStyle=1;fillColor=#b0e3e6;entryX=0;entryY=0.75;entryDx=0;entryDy=0;" parent="1" target="1778" edge="1">
          <mxGeometry relative="1" as="geometry">
            <mxPoint x="850" y="280" as="sourcePoint" />
            <mxPoint x="798" y="188.57" as="targetPoint" />
            <Array as="points" />
          </mxGeometry>
        </mxCell>
        <mxCell id="9QWpWI23YcQeR8jQ0grn-1781" value="&lt;br style=&quot;font-size: 18px;&quot;&gt;&lt;br style=&quot;font-size: 18px;&quot;&gt;&lt;span style=&quot;font-size: 18px;&quot;&gt;&lt;b style=&quot;color: rgb(0, 0, 0); font-family: &amp;quot;comic sans ms&amp;quot;; font-size: 18px; font-style: normal; letter-spacing: normal; text-align: justify; text-indent: -9.46667px; text-transform: none; word-spacing: 0px;&quot;&gt;&lt;i style=&quot;font-size: 18px;&quot;&gt;&amp;nbsp; Cyber Security Management Roadmap&lt;/i&gt;&lt;/b&gt;&lt;br style=&quot;font-size: 18px;&quot;&gt;&lt;/span&gt;" style="text;html=1;strokeColor=none;fillColor=none;align=center;verticalAlign=middle;whiteSpace=wrap;rounded=0;fontFamily=Comic Sans MS;labelBackgroundColor=#FFFFFF;fontSize=18;" vertex="1" parent="1">
          <mxGeometry x="410" y="-100" width="292.81" height="90" as="geometry" />
        </mxCell>
        <mxCell id="9QWpWI23YcQeR8jQ0grn-1790" value="" style="edgeStyle=none;rounded=1;jumpStyle=none;html=1;shadow=0;labelBackgroundColor=none;startArrow=none;startFill=0;jettySize=auto;orthogonalLoop=1;strokeColor=#12AAB5;strokeWidth=3;fontFamily=Helvetica;fontSize=14;fontColor=#FFFFFF;spacing=5;fontStyle=1;fillColor=#b0e3e6;entryX=0;entryY=0.5;entryDx=0;entryDy=0;exitX=1;exitY=0.75;exitDx=0;exitDy=0;" edge="1" parent="1" source="1771" target="1774">
          <mxGeometry relative="1" as="geometry">
            <mxPoint x="860" y="380" as="sourcePoint" />
            <mxPoint x="832" y="259.29" as="targetPoint" />
            <Array as="points" />
          </mxGeometry>
        </mxCell>
      </root>
    </mxGraphModel>
  </diagram>
</mxfile>
